{
  "accessors": [
    {
      "name": "Mesh1 Component_1_1 main1 Model_1_0_positions",
      "componentType": 5126,
      "count": 158,
      "min": [
        -0.07148630172014236,
        0.023820700123906136,
        -0.15154899656772614
      ],
      "max": [
        0.06621939688920975,
        0.023820700123906136,
        -0.05500379949808121
      ],
      "type": "VEC3",
      "bufferView": 0,
      "byteOffset": 0
    },
    {
      "name": "Mesh1 Component_1_1 main1 Model_1_0_normals",
      "componentType": 5126,
      "count": 158,
      "min": [
        0,
        1,
        0
      ],
      "max": [
        0,
        1,
        0
      ],
      "type": "VEC3",
      "bufferView": 1,
      "byteOffset": 0
    },
    {
      "name": "Mesh1 Component_1_1 main1 Model_1_0_texcoords",
      "componentType": 5126,
      "count": 158,
      "min": [
        0,
        0
      ],
      "max": [
        1,
        1
      ],
      "type": "VEC2",
      "bufferView": 2,
      "byteOffset": 0
    },
    {
      "name": "Mesh1 Component_1_1 main1 Model_1_0_indices",
      "componentType": 5123,
      "count": 468,
      "min": [
        0
      ],
      "max": [
        157
      ],
      "type": "SCALAR",
      "bufferView": 3,
      "byteOffset": 0
    },
    {
      "name": "Mesh1 Component_1_1 main1 Model_1_1_positions",
      "componentType": 5126,
      "count": 614,
      "min": [
        -0.07148630172014236,
        0.018396299332380295,
        -0.15154899656772614
      ],
      "max": [
        0.06621939688920975,
        0.023820700123906136,
        -0.05500379949808121
      ],
      "type": "VEC3",
      "bufferView": 0,
      "byteOffset": 1896
    },
    {
      "name": "Mesh1 Component_1_1 main1 Model_1_1_normals",
      "componentType": 5126,
      "count": 614,
      "min": [
        -0.9999167323112488,
        0,
        -0.999987781047821
      ],
      "max": [
        0.9985272884368896,
        0,
        0.999987781047821
      ],
      "type": "VEC3",
      "bufferView": 1,
      "byteOffset": 1896
    },
    {
      "name": "Mesh1 Component_1_1 main1 Model_1_1_texcoords",
      "componentType": 5126,
      "count": 614,
      "min": [
        -1.3439899682998657,
        0.9644501805305481
      ],
      "max": [
        1.4374699592590332,
        1
      ],
      "type": "VEC2",
      "bufferView": 2,
      "byteOffset": 1264
    },
    {
      "name": "Mesh1 Component_1_1 main1 Model_1_1_indices",
      "componentType": 5123,
      "count": 948,
      "min": [
        0
      ],
      "max": [
        613
      ],
      "type": "SCALAR",
      "bufferView": 3,
      "byteOffset": 936
    },
    {
      "name": "Mesh1 Component_1_1 main1 Model_1_2_positions",
      "componentType": 5126,
      "count": 158,
      "min": [
        -0.07148630172014236,
        0.018396299332380295,
        -0.15154899656772614
      ],
      "max": [
        0.06621939688920975,
        0.018396299332380295,
        -0.05500379949808121
      ],
      "type": "VEC3",
      "bufferView": 0,
      "byteOffset": 9264
    },
    {
      "name": "Mesh1 Component_1_1 main1 Model_1_2_normals",
      "componentType": 5126,
      "count": 158,
      "min": [
        0,
        -1,
        0
      ],
      "max": [
        0,
        -1,
        0
      ],
      "type": "VEC3",
      "bufferView": 1,
      "byteOffset": 9264
    },
    {
      "name": "Mesh1 Component_1_1 main1 Model_1_2_texcoords",
      "componentType": 5126,
      "count": 158,
      "min": [
        0,
        0
      ],
      "max": [
        1,
        1
      ],
      "type": "VEC2",
      "bufferView": 2,
      "byteOffset": 6176
    },
    {
      "name": "Mesh1 Component_1_1 main1 Model_1_2_indices",
      "componentType": 5123,
      "count": 468,
      "min": [
        0
      ],
      "max": [
        157
      ],
      "type": "SCALAR",
      "bufferView": 3,
      "byteOffset": 2832
    },
    {
      "name": "Mesh2 main1 Model_1_0_positions",
      "componentType": 5126,
      "count": 3096,
      "min": [
        -0.07656469941139221,
        4.5119499571435854e-17,
        -0.17798100411891937
      ],
      "max": [
        0.07343529909849167,
        0.019999999552965164,
        -0.027980700135231018
      ],
      "type": "VEC3",
      "bufferView": 0,
      "byteOffset": 11160
    },
    {
      "name": "Mesh2 main1 Model_1_0_normals",
      "componentType": 5126,
      "count": 3096,
      "min": [
        -1,
        -1,
        -1
      ],
      "max": [
        1,
        1,
        1
      ],
      "type": "VEC3",
      "bufferView": 1,
      "byteOffset": 11160
    },
    {
      "name": "Mesh2 main1 Model_1_0_texcoords",
      "componentType": 5126,
      "count": 3096,
      "min": [
        -4.563650131225586,
        -6.030250072479248
      ],
      "max": [
        4.569519996643066,
        7.646590232849121
      ],
      "type": "VEC2",
      "bufferView": 2,
      "byteOffset": 7440
    },
    {
      "name": "Mesh2 main1 Model_1_0_indices",
      "componentType": 5123,
      "count": 4740,
      "min": [
        0
      ],
      "max": [
        3095
      ],
      "type": "SCALAR",
      "bufferView": 3,
      "byteOffset": 3768
    }
  ],
  "asset": {
    "generator": "obj2gltf",
    "version": "2.0"
  },
  "buffers": [
    {
      "name": "adana",
      "byteLength": 2692820,
      "uri": "data:application/octet-stream;base64,"
    }
  ],
  "bufferViews": [
    {
      "name": "bufferView_0",
      "buffer": 0,
      "byteLength": 48312,
      "byteOffset": 0,
      "byteStride": 12,
      "target": 34962
    },
    {
      "name": "bufferView_1",
      "buffer": 0,
      "byteLength": 48312,
      "byteOffset": 48312,
      "byteStride": 12,
      "target": 34962
    },
    {
      "name": "bufferView_2",
      "buffer": 0,
      "byteLength": 32208,
      "byteOffset": 96624,
      "byteStride": 8,
      "target": 34962
    },
    {
      "name": "bufferView_3",
      "buffer": 0,
      "byteLength": 13248,
      "byteOffset": 128832,
      "target": 34963
    },
    {
      "buffer": 0,
      "byteOffset": 142080,
      "byteLength": 786381
    },
    {
      "buffer": 0,
      "byteOffset": 928461,
      "byteLength": 953486
    },
    {
      "buffer": 0,
      "byteOffset": 1881947,
      "byteLength": 810873
    }
  ],
  "images": [
    {
      "name": "_1",
      "mimeType": "image/png",
      "bufferView": 4
    },
    {
      "name": "_1_1_",
      "mimeType": "image/png",
      "bufferView": 5
    },
    {
      "name": "_1_2_",
      "mimeType": "image/png",
      "bufferView": 6
    }
  ],
  "materials": [
    {
      "name": "_1",
      "pbrMetallicRoughness": {
        "baseColorTexture": {
          "index": 0
        },
        "baseColorFactor": [
          1,
          1,
          1,
          1
        ],
        "metallicFactor": 0,
        "roughnessFactor": 1
      },
      "emissiveFactor": [
        0,
        0,
        0
      ],
      "alphaMode": "OPAQUE",
      "doubleSided": false
    },
    {
      "name": "_1_1_",
      "pbrMetallicRoughness": {
        "baseColorTexture": {
          "index": 1
        },
        "baseColorFactor": [
          1,
          1,
          1,
          1
        ],
        "metallicFactor": 0,
        "roughnessFactor": 1
      },
      "emissiveFactor": [
        0,
        0,
        0
      ],
      "alphaMode": "OPAQUE",
      "doubleSided": false
    },
    {
      "name": "_1_2_",
      "pbrMetallicRoughness": {
        "baseColorTexture": {
          "index": 2
        },
        "baseColorFactor": [
          1,
          1,
          1,
          1
        ],
        "metallicFactor": 0,
        "roughnessFactor": 1
      },
      "emissiveFactor": [
        0,
        0,
        0
      ],
      "alphaMode": "OPAQUE",
      "doubleSided": false
    },
    {
      "name": "M_0128_White",
      "pbrMetallicRoughness": {
        "baseColorFactor": [
          1,
          1,
          1,
          1
        ],
        "metallicFactor": 0,
        "roughnessFactor": 1
      },
      "emissiveFactor": [
        0,
        0,
        0
      ],
      "alphaMode": "OPAQUE",
      "doubleSided": false
    }
  ],
  "meshes": [
    {
      "name": "Mesh1 Component_1_1 main1 Model_1",
      "primitives": [
        {
          "attributes": {
            "POSITION": 0,
            "NORMAL": 1,
            "TEXCOORD_0": 2
          },
          "indices": 3,
          "material": 0,
          "mode": 4
        },
        {
          "attributes": {
            "POSITION": 4,
            "NORMAL": 5,
            "TEXCOORD_0": 6
          },
          "indices": 7,
          "material": 1,
          "mode": 4
        },
        {
          "attributes": {
            "POSITION": 8,
            "NORMAL": 9,
            "TEXCOORD_0": 10
          },
          "indices": 11,
          "material": 2,
          "mode": 4
        }
      ]
    },
    {
      "name": "Mesh2 main1 Model_1",
      "primitives": [
        {
          "attributes": {
            "POSITION": 12,
            "NORMAL": 13,
            "TEXCOORD_0": 14
          },
          "indices": 15,
          "material": 3,
          "mode": 4
        }
      ]
    }
  ],
  "nodes": [
    {
      "name": "Mesh1 Component_1_1 main1 Model",
      "mesh": 0
    },
    {
      "name": "Mesh2 main1 Model",
      "mesh": 1
    }
  ],
  "samplers": [
    {
      "wrapS": 10497,
      "wrapT": 10497
    }
  ],
  "scene": 0,
  "scenes": [
    {
      "nodes": [
        0,
        1
      ]
    }
  ],
  "textures": [
    {
      "name": "_1",
      "sampler": 0,
      "source": 0
    },
    {
      "name": "_1_1_",
      "sampler": 0,
      "source": 1
    },
    {
      "name": "_1_2_",
      "sampler": 0,
      "source": 2
    }
  ]
}
