{
  "asset": {
    "version": "2.0",
    "generator": "COLLADA2GLTF"
  },
  "scene": 0,
  "scenes": [
    {
      "nodes": [
        0
      ]
    }
  ],
  "samplers": [
    {
    }
  ],
  "nodes": [
    {
      "name": "root",
      "children": [
        1
      ],
      "mesh": 1
    },
    {
      "name": "Component#1",
      "mesh": 0
    }
  ],
  "materials": [
    {
      "pbrMetallicRoughness": {
        "baseColorFactor": [
          1.0,
          1.0,
          1.0,
          1.0
        ],
        "metallicFactor": 0.1,
        "roughnessFactor": 0.9
      },
      "name": "0128_White",
      "doubleSided": true
    },
    {
      "pbrMetallicRoughness": {
        "baseColorTexture": {
          "index": 0
        },
        "metallicFactor": 0.1,
        "roughnessFactor": 0.9
      },
      "name": "Material1",
      "doubleSided": true
    }
  ],
  "images": [
    {
      "bufferView": 0,
      "mimeType": "image/png"
    }
  ],
  "textures": [
    {
      "source": 0,
      "sampler": 0
    }
  ],
  "meshes": [
    {
      "primitives": [
        {
          "attributes": {
            "POSITION": 2,
            "NORMAL": 3,
            "TEXCOORD_0": 4
          },
          "indices": 5,
          "mode": 4,
          "material": 1
        }
      ]
    },
    {
      "primitives": [
        {
          "attributes": {
            "POSITION": 0,
            "NORMAL": 1
          },
          "indices": 6,
          "mode": 4,
          "material": 0
        }
      ]
    }
  ],
  "accessors": [
    {
      "bufferView": 1,
      "componentType": 5126,
      "count": 792,
      "type": "VEC3",
      "min": [
        -0.0765647377359752,
        3.6134797814997947e-17,
        -0.17798072941559795
      ],
      "max": [
        0.0734352622640224,
        0.01999999999999972,
        -0.02798072941560047
      ]
    },
    {
      "bufferView": 2,
      "componentType": 5126,
      "count": 792,
      "type": "VEC3",
      "min": [
        -1.0,
        -0.9998966581889266,
        -0.9999999999999999
      ],
      "max": [
        1.0,
        0.9998966581889305,
        1.0
      ]
    },
    {
      "bufferView": 3,
      "componentType": 5126,
      "count": 946,
      "type": "VEC3",
      "min": [
        -0.06889214159026041,
        0.01365200000000009,
        -0.15154945884487647
      ],
      "max": [
        0.0662193747137682,
        0.019067318026838823,
        -0.056822593274003456
      ]
    },
    {
      "bufferView": 4,
      "componentType": 5126,
      "count": 946,
      "type": "VEC3",
      "min": [
        -0.9999334892648034,
        -1.0,
        -0.9999846858248193
      ],
      "max": [
        0.9988232264481236,
        1.0,
        0.999984685824819
      ]
    },
    {
      "bufferView": 5,
      "componentType": 5126,
      "count": 946,
      "type": "VEC2",
      "min": [
        -1.343990963659567,
        -1.070917665688317
      ],
      "max": [
        1.4374713576748874,
        1.0
      ]
    },
    {
      "bufferView": 7,
      "componentType": 5123,
      "count": 1884,
      "type": "SCALAR"
    },
    {
      "bufferView": 6,
      "componentType": 5123,
      "count": 4740,
      "type": "SCALAR"
    }
  ],
  "bufferViews": [
    {
      "buffer": 0,
      "byteLength": 786381
    },
    {
      "buffer": 0,
      "byteOffset": 786384,
      "byteLength": 9504,
      "target": 34962,
      "byteStride": 12
    },
    {
      "buffer": 0,
      "byteOffset": 795888,
      "byteLength": 9504,
      "target": 34962,
      "byteStride": 12
    },
    {
      "buffer": 0,
      "byteOffset": 805392,
      "byteLength": 11352,
      "target": 34962,
      "byteStride": 12
    },
    {
      "buffer": 0,
      "byteOffset": 816744,
      "byteLength": 11352,
      "target": 34962,
      "byteStride": 12
    },
    {
      "buffer": 0,
      "byteOffset": 828096,
      "byteLength": 7568,
      "target": 34962,
      "byteStride": 8
    },
    {
      "buffer": 0,
      "byteOffset": 835664,
      "byteLength": 9480,
      "target": 34963
    },
    {
      "buffer": 0,
      "byteOffset": 845144,
      "byteLength": 3768,
      "target": 34963
    }
  ],
  "buffers": [
    {
      "uri": "data:application/octet-stream;base64,",
      "byteLength": 848912
    }
  ]
}